<svg xmlns="http://www.w3.org/2000/svg" width="312" height="318" viewBox="0 0 312 318">
  <defs>
    <style>
      .cls-1 {
        fill: #4285f4;
        fill-rule: evenodd;
      }
    </style>
  </defs>
  <path id="Forma_4" data-name="Forma 4" class="cls-1" d="M79,92.078a20.724,20.724,0,0,1,6.04-8.052C88.99,81.064,95.107,80,95.107,80H214.9s6.921,2.793,11.073,8.052c3.3,4.177,4.027,11.072,4.027,11.072V213.869s-0.908,8.96-6.04,14.092c-4.931,4.93-14.093,6.039-14.093,6.039H96.113a26.4,26.4,0,0,1-11.073-4.026c-3.559-2.512-6.04-8.052-6.04-8.052V92.078Zm66.44,56.366V116.235s0.338-4.918,8.053-5.032c7.182-.107,8.054,5.032,8.054,5.032v32.209h33.22a8.662,8.662,0,0,1,4.026,8.053c-0.219,6.342-4.026,8.052-4.026,8.052h-33.22v32.209s-1.169,4.765-8.054,5.033c-7.019.273-8.053-5.033-8.053-5.033V164.549H113.227a7.98,7.98,0,0,1-5.034-8.052c0.162-6.716,5.034-8.053,5.034-8.053H145.44ZM240,92.078a20.728,20.728,0,0,1,6.04-8.052C249.99,81.064,256.107,80,256.107,80H375.9s6.921,2.793,11.073,8.052c3.3,4.177,4.027,11.072,4.027,11.072V213.869s-0.908,8.96-6.04,14.092c-4.931,4.93-14.093,6.039-14.093,6.039H257.113a26.4,26.4,0,0,1-11.073-4.026c-3.559-2.512-6.04-8.052-6.04-8.052V92.078Zm66.44,56.366h49.327a8.662,8.662,0,0,1,4.026,8.053c-0.219,6.342-4.026,8.052-4.026,8.052h-81.54a7.98,7.98,0,0,1-5.034-8.052c0.162-6.716,5.034-8.053,5.034-8.053H306.44ZM79,256.078a20.724,20.724,0,0,1,6.04-8.052C88.99,245.064,95.107,244,95.107,244H214.9s6.921,2.793,11.073,8.052c3.3,4.177,4.027,11.072,4.027,11.072V377.869s-0.908,8.96-6.04,14.092c-4.931,4.93-14.093,6.039-14.093,6.039H96.113a26.4,26.4,0,0,1-11.073-4.026c-3.559-2.512-6.04-8.052-6.04-8.052V256.078Zm74.493,53.031,22.779-22.775s3.717-3.239,9.253,2.135c5.154,5,2.136,9.252,2.136,9.252L164.882,320.5l23.491,23.487a8.662,8.662,0,0,1-2.848,8.541c-4.64,4.329-8.542,2.846-8.542,2.846l-23.49-23.487L130.715,354.66s-4.2,2.542-9.254-2.135c-5.156-4.77-2.135-9.253-2.135-9.253L142.1,320.5l-22.778-22.776a7.978,7.978,0,0,1,2.135-9.252c4.865-4.634,9.254-2.135,9.254-2.135ZM240,256.078a20.728,20.728,0,0,1,6.04-8.052c3.95-2.962,10.067-4.026,10.067-4.026H375.9s6.921,2.793,11.073,8.052c3.3,4.177,4.027,11.072,4.027,11.072V377.869s-0.908,8.96-6.04,14.092c-4.931,4.93-14.093,6.039-14.093,6.039H257.113a26.4,26.4,0,0,1-11.073-4.026c-3.559-2.512-6.04-8.052-6.04-8.052V256.078Zm66.44,72.471h49.327a8.661,8.661,0,0,1,4.026,8.052c-0.219,6.343-4.026,8.053-4.026,8.053h-81.54a7.981,7.981,0,0,1-5.034-8.053c0.162-6.716,5.034-8.052,5.034-8.052H306.44Zm0-32.209h49.327a8.661,8.661,0,0,1,4.026,8.052c-0.219,6.342-4.026,8.052-4.026,8.052h-81.54a7.979,7.979,0,0,1-5.034-8.052c0.162-6.716,5.034-8.052,5.034-8.052H306.44Z" transform="translate(-79 -80)"/>
</svg>
